<?xml version="1.0" encoding="UTF-8"?>
<!-- Generator: visioncortex VTracer 0.6.12 -->
<svg version="1.1" xmlns="http://www.w3.org/2000/svg" width="561" height="892">
<path d="M0 0 C185.1 0 370.3 0 561 0 C561 294.4 561 588.7 561 892 C375.9 892 190.7 892 0 892 C0 597.6 0 303.3 0 0 Z " fill="#FDFDFD" transform="translate(0,0)"/>
<path d="M0 0 C185.1 0 370.3 0 561 0 C561 294.4 561 588.7 561 892 C375.9 892 190.7 892 0 892 C0 597.6 0 303.3 0 0 Z M235 55.2 C232.5 58.1 230.2 61 228 64 C227.7 63.7 227.7 63.7 226.4 62.4 C224 61 224 61 221.2 61 C216.9 62.3 214.7 64.6 211.7 67.9 C211.1 68.5 210.5 69.1 210 69.7 C205 74.9 200.4 80.3 196 86 C194.9 87.3 193.8 88.7 192.8 90 C169.2 119.5 169.2 119.5 166.9 134.3 C166.8 134.8 166.8 134.8 166.4 137.6 C166.2 138.4 166.1 139.2 166 140 C165.3 139.3 164.7 138.7 164 138 C161.1 137.6 161.1 137.6 158 138 C154.7 142.2 153.9 146.8 152.9 151.9 C152.8 152.8 152.6 153.7 152.4 154.6 C148.7 174.9 148.5 195.5 148 216 C144.6 200.2 144.6 200.2 144.7 192.9 C144.7 192.5 144.7 192.5 144.7 190.8 C144.9 184 145.5 177.2 146.3 170.5 C146.9 164.6 147.1 158.9 147 153 C129.5 155.5 109.8 168.4 97 180 C96.5 180.5 96 180.9 95.4 181.4 C62.2 210.9 51.7 246.5 43.6 289.1 C43.5 289.4 43.5 289.4 43.2 291.1 C39.4 310.6 39.4 310.6 42.4 317.1 C44 319 44 319 45 320 C47 320 49 320 51 320 C50.9 320.6 50.9 320.6 50.5 323.7 C49.8 328.4 49.2 333.1 48.5 337.8 C48.3 339.8 48 341.8 47.7 343.8 C42.6 380.3 42.6 380.3 42.8 398.9 C42.8 401.1 42.8 403.4 42.8 405.6 C42.8 413.9 43.1 422 43.6 430.2 C44 435 44.1 439.8 44.1 444.6 C44.1 445.8 44 447 44 448.3 C44 449.2 44 450.1 44 451 C43.2 450.5 42.5 450 41.7 449.5 C38.6 447.8 37.4 447.2 34 448 C27.2 454.2 25.5 463.6 24.7 472.5 C24.2 484.6 27.1 494.8 30.8 506.1 C31.9 509.5 33 513 34.1 516.4 C34.3 517.2 34.6 518 34.9 518.9 C41.2 539.2 40.8 556.6 36.1 577.2 C32.1 595.7 32.1 595.7 36 603 C36.3 605.4 36.3 605.4 36.4 608 C36.7 611.5 36.8 612.7 38.9 615.6 C42.5 618 44.7 618.3 49 618 C51.2 616.5 51.2 616.5 53 615 C54 615 55 615 56 615 C56.1 616 56.2 617 56.2 618.1 C59.8 666.1 68.4 706.8 97.7 746.2 C110.7 763.8 119.8 781.4 128.1 801.6 C138.1 825.9 148.8 845.4 174.1 856.4 C212.2 872.2 257.6 872.8 295.9 857.4 C315.8 848.3 333.2 830.6 347 814 C347.4 813.5 347.9 813 348.3 812.4 C360.1 798.3 371 783.6 381.8 768.6 C394.2 751.3 407.9 735.9 423 721 C429.8 722.8 429.8 722.8 432 724.6 C435.1 726.7 437.4 726.5 441 726 C444.1 722.1 444.7 718 445.2 713.2 C445.2 712.8 445.2 712.8 445.4 711.1 C445.6 709.4 445.8 707.7 446 706 C446.4 706.2 446.4 706.2 448.1 707.3 C458.3 713.3 458.3 713.3 465 712 C467.7 710 468.7 708.4 469.4 705.1 C470.1 695.1 466.1 684.4 463 675 C464.3 676.1 465.5 677.2 466.8 678.3 C467.2 678.6 467.2 678.6 469 680.2 C471 682 471 682 472.6 683.7 C474 685 474 685 477 685.4 C480 685 480 685 481.7 683.4 C483.5 680.1 483.3 677.7 483.3 673.9 C483.3 673.5 483.3 673.5 483.2 671.8 C483.1 664.2 482.5 656.6 481.8 649.1 C481.6 646.7 481.4 644.4 481.2 642 C481 640.5 480.9 639 480.8 637.5 C480.7 636.8 480.6 636.1 480.6 635.4 C480.3 632.2 479.9 629.1 479 626 C479.6 626 480.2 626 480.8 626 C488.1 625.5 495.4 624 500.5 618.4 C502.5 615.3 503.1 612.4 503.4 608.8 C504 605 504 605 506.6 603.1 C507.7 602.4 508.9 601.7 510 601 C515.1 595.4 518.8 589.2 522 582.3 C522.2 581.9 522.2 581.9 523.3 579.6 C527.5 570.4 530.6 561 533.3 551.3 C533.9 549.4 534.5 547.6 535.1 545.8 C541.2 526.1 536 503.2 531.9 483.7 C530.5 476.8 530.5 469.9 531.5 463 C532.5 455.6 533.7 447.2 529 441 C522.7 434.1 515.9 430 506.5 428.7 C501.3 428.4 497.6 429.6 493 432 C492.3 432.7 491.7 433.3 491 434 C490.9 425.1 491.2 416.4 491.8 407.5 C491.9 406.3 491.9 405 492 403.7 C492.2 400.4 492.5 397.1 492.7 393.8 C492.9 390.5 493.1 387.3 493.3 384 C494.2 370.6 495.3 357.4 496.9 344.1 C498.1 334.3 499 324.6 499.7 314.8 C499.7 314.3 499.7 314.3 499.9 312.2 C502.2 280 503 247.4 482 221 C480.9 219.6 479.9 218.2 478.8 216.8 C469.3 204.7 456.2 191.2 440 189 C440 188.3 440 187.7 440 187 C443.7 188.4 447.4 189.8 451.1 191.2 C452.2 191.6 453.2 192 454.3 192.4 C463 195.8 463 195.8 466.6 198.3 C469 200 469 200 472 200 C476.1 172 476.1 172 472.3 166.6 C469.6 164.7 468.4 164.5 465.2 164.6 C464.4 164.6 463.6 164.7 462.7 164.7 C459.4 165.1 456.2 166 453 167 C453.1 166.3 453.1 165.6 453.2 164.8 C457.9 108.1 457.9 108.1 446.6 94.3 C440 87.6 430.7 86.9 421.8 86.6 C413.6 86.6 405.5 88.1 397.5 89.6 C391.6 90.7 386.1 91.2 380 91 C381.6 89.7 383.2 88.4 384.8 87.1 C385.3 86.7 385.3 86.7 387.8 84.6 C389.9 82.9 391.9 81.3 393.9 79.7 C406.8 69.5 406.8 69.5 410 63 C410.4 59.6 410.4 59.6 410 56 C406.5 52 401.9 50.6 397 49 C396.1 48.7 395.2 48.3 394.3 48 C390.8 47 388.1 46.8 384.6 46.8 C383.9 46.8 383.9 46.8 380.7 46.8 C379.4 46.8 378 46.9 376.6 46.9 C375.2 46.9 373.8 46.9 372.4 46.9 C369.4 47 366.4 47 363.4 47.1 C360.4 47.1 357.3 47.1 354.3 47.2 C312.4 47.5 312.4 47.5 295 57 C303.7 51.2 312.8 46.4 322.2 41.7 C332.5 36.5 332.5 36.5 336 32 C336.4 29.3 336.4 29.3 336 27 C333.4 24.4 331.5 24.7 327.9 24.6 C297 24.7 256.7 31.5 235 55.2 Z " fill="#FEFEFE" transform="translate(0,0)"/>
<path d="M0 0 C0.9 -0 1.8 -0 2.7 -0 C3.5 -0 4.4 -0 5.2 -0 C6 -0 6.7 -0 7.5 -0 C9.4 0.3 9.4 0.3 11.4 2.2 C11.6 5.5 11.6 5.5 10.4 9.2 C8.5 10.7 8.5 10.7 6 12.1 C5.6 12.4 5.6 12.4 3.3 13.7 C-2.5 16.8 -8.4 19.8 -14.2 22.8 C-20.1 25.8 -25.5 29 -30.6 33.2 C-30.3 33.1 -30.3 33.1 -28.7 32.1 C-10.8 22.2 9.3 22.4 29.1 22.2 C32.1 22.2 35.1 22.1 38 22 C73.4 21 73.4 21 84.2 29.7 C86.3 32.5 85.8 35 85.4 38.2 C81 46.6 73 52.5 65.6 58.1 C64.1 59.2 62.5 60.3 61 61.5 C60.7 61.7 60.7 61.7 59.1 62.9 C57.4 64.3 57.4 64.3 55.4 66.2 C62.5 66.5 69 65.6 75.9 64.2 C89.6 61.8 105.8 59.1 118.5 66.5 C127.3 73.3 128.8 83.5 130.1 93.9 C131.8 109.9 129.7 126.3 128.4 142.2 C129.4 141.9 130.5 141.6 131.6 141.3 C134.7 140.4 137.3 139.9 140.6 139.9 C141.4 139.8 142.2 139.8 143 139.8 C146.3 140.4 147.4 141.5 149.4 144.2 C150.9 154.4 148.9 165.2 147.4 175.2 C143.9 174.6 141.2 173.2 138.1 171.6 C130.8 167.8 123.1 165 115.4 162.2 C115.4 162.9 115.4 163.6 115.4 164.2 C116.6 164.6 117.8 164.9 119 165.2 C136.9 171.3 148.1 183.5 158.9 198.3 C160.1 199.9 161.3 201.5 162.6 203 C170.1 212.8 172.4 224.5 174.7 236.3 C174.8 236.7 174.8 236.7 175.2 238.9 C178.3 256.6 176.3 275.1 174.8 292.9 C174.5 296.2 174.2 299.5 174 302.9 C172.6 320.3 172.6 320.3 171.4 328.4 C169.8 339.7 169.2 351 168.5 362.3 C168.3 365.7 168.1 369.1 167.8 372.5 C167.6 375.8 167.4 379.1 167.2 382.4 C167.1 383.6 167 384.8 166.9 386 C166.4 393.8 166.3 401.5 166.4 409.2 C167.2 408.6 167.9 408 168.7 407.3 C172.8 404.1 176.7 403.8 181.7 403.9 C190.6 405.1 198.5 409.7 204.4 416.2 C209.4 423 207.7 432.2 206.6 440 C205.6 449.6 206.9 458.6 208.8 468 C213.4 491.3 214 511.5 206.4 534.2 C206.1 535.1 205.8 535.9 205.5 536.8 C200.9 550.8 195 568.5 183.4 578.2 C182.7 578.5 182 578.8 181.2 579.1 C179.4 580.2 179.4 580.2 178.7 582.5 C178.5 583.3 178.4 584.2 178.3 585.1 C177.1 592.3 177.1 592.3 174.4 595.2 C168 599.5 162 601.1 154.4 601.2 C154.5 601.9 154.6 602.5 154.7 603.2 C162.4 647.7 162.4 647.7 157.2 658.7 C155.4 660.2 155.4 660.2 152.5 660.8 C148.5 660.1 147.3 658.8 144.6 655.8 C140.5 651.3 140.5 651.3 138.4 650.2 C138.7 651.4 139.1 652.6 139.4 653.8 C139.9 655.3 140.4 656.9 140.8 658.4 C140.9 658.8 140.9 658.8 141.5 660.8 C146.5 677.7 146.5 677.7 142.9 685.4 C140.1 687.4 138.2 688 134.7 687.8 C129.9 686.6 125.6 683.9 121.4 681.2 C121.3 681.8 121.3 681.8 121 684.4 C120.9 685.7 120.7 687.1 120.6 688.4 C120.5 689.1 120.4 689.8 120.3 690.5 C119.8 694.7 119.1 697.9 116.4 701.2 C112 702 110 701.6 106.2 699.3 C105.3 698.6 104.4 698 103.4 697.2 C101 696.4 101 696.4 98.4 696.2 C96 697.9 96 697.9 93.5 700.4 C92.6 701.3 91.7 702.2 90.8 703.1 C89.8 704.1 88.8 705.1 87.9 706.1 C86.9 707.1 85.9 708.2 84.9 709.2 C77 717.3 69.9 726 63.4 735.2 C62.3 736.7 61.2 738.2 60.2 739.7 C58.5 742 56.9 744.2 55.2 746.5 C43.4 763 31 779.2 17.4 794.2 C16.7 795 16 795.8 15.3 796.6 C13 799.2 10.7 801.7 8.4 804.2 C7.6 805 6.9 805.8 6.2 806.7 C-13.9 827.6 -37.3 838.1 -65.6 842.2 C-66.8 842.4 -68.1 842.6 -69.3 842.8 C-98.1 846.3 -129.4 841.9 -155.6 829.2 C-156.4 828.9 -157.2 828.5 -158 828.1 C-182.1 815.6 -190.8 792 -200.3 768.2 C-207.6 750.2 -217.2 735.1 -228.6 719.4 C-253.4 685.3 -264.1 649.6 -267.2 607.9 C-267.4 606.2 -267.5 604.5 -267.7 602.8 C-268 598.6 -268.3 594.4 -268.6 590.2 C-271.6 590.9 -273 591.5 -275.6 593.2 C-279.5 593.6 -282.3 593.5 -285.6 591.2 C-287.7 588.1 -287.9 587 -288.1 583.3 C-288.4 578.7 -288.4 578.7 -289.6 576.4 C-293.5 568.2 -289.5 556.9 -287.6 548.6 C-284.6 534.5 -283.1 522.1 -286.3 507.9 C-286.5 507.1 -286.7 506.4 -286.8 505.6 C-288.1 500 -289.7 494.5 -291.4 489 C-291.5 488.6 -291.5 488.6 -292.2 486.7 C-293.1 483.6 -294.1 480.5 -295.1 477.4 C-300.2 462 -303.2 444.5 -295.6 429.2 C-294.2 427 -292.5 425.1 -290.6 423.2 C-286.5 423.6 -284.1 423.9 -280.6 426.2 C-280.6 424.1 -280.6 422 -280.6 419.8 C-280.6 418.6 -280.5 417.4 -280.5 416.2 C-280.6 411.9 -280.8 407.6 -281.1 403.3 C-281.6 394.6 -281.9 386 -281.9 377.3 C-281.9 376.5 -281.9 375.8 -281.9 375 C-282 358.6 -280.2 342.6 -277.9 326.3 C-277.4 322.8 -276.9 319.2 -276.5 315.7 C-275.5 308.9 -274.6 302.1 -273.6 295.2 C-274.6 295.3 -275.5 295.3 -276.5 295.3 C-279.6 295.2 -279.6 295.2 -281.4 293.9 C-285.7 287.9 -283.7 279.1 -282.6 272.3 C-282.1 269.7 -281.6 267.1 -281.1 264.5 C-281 263.8 -280.9 263.1 -280.7 262.4 C-277.8 247.1 -274 232.2 -269.6 217.2 C-269.4 216.3 -269.1 215.4 -268.8 214.4 C-264.3 199 -257.5 186.4 -246.6 174.2 C-246.1 173.7 -245.6 173.1 -245 172.5 C-237.8 164.3 -230.4 156.8 -221.6 150.2 C-220.9 149.7 -220.2 149.1 -219.4 148.5 C-209.2 140.9 -190.7 128.2 -177.6 128.2 C-177.5 135 -177.9 141.6 -178.6 148.3 C-179.3 154.9 -179.9 161.5 -179.9 168.1 C-179.9 168.7 -179.9 168.7 -180 171.8 C-179.7 178.4 -178 184.9 -176.6 191.2 C-176.6 190.8 -176.6 190.8 -176.6 188.8 C-175.5 147.1 -175.5 147.1 -171.7 127.2 C-171.5 126.4 -171.4 125.5 -171.2 124.7 C-170.3 120.4 -169.4 116.8 -166.6 113.2 C-163.6 112.8 -163.6 112.8 -160.6 113.2 C-160 113.9 -159.3 114.6 -158.6 115.2 C-158.6 114.9 -158.6 114.9 -158.4 113 C-156.4 97.7 -147.6 86.4 -138.6 74.2 C-138.2 73.7 -137.8 73.1 -137.3 72.5 C-130.6 63.3 -123.2 54.7 -115.6 46.2 C-114.8 45.3 -113.9 44.3 -113 43.3 C-112.2 42.5 -111.5 41.7 -110.7 40.9 C-110 40.2 -109.4 39.5 -108.7 38.8 C-106 36.8 -104 36.3 -100.6 36.2 C-98.2 37.7 -98.2 37.7 -96.6 39.2 C-96.1 38.5 -95.5 37.8 -95 37.1 C-76.3 13.6 -51.1 7.5 -22.6 2.2 C-21.6 2.1 -20.6 1.9 -19.6 1.7 C-13 0.5 -6.7 -0.1 0 0 Z M-7.3 273.6 C-8 273.7 -8.8 273.8 -9.5 274 C-11.9 274.4 -14.3 274.9 -16.7 275.4 C-17.1 275.5 -17.1 275.5 -19.2 275.9 C-31.6 278.3 -43.6 281.1 -55.6 285.2 C-56.8 285.6 -58 286 -59.2 286.5 C-64.6 288.3 -70 290.2 -75.4 292.1 C-84.2 295.1 -93 298.1 -101.9 300.9 C-102.9 301.2 -103.9 301.5 -105 301.9 C-111.5 303.9 -116.8 305.5 -123.6 305.2 C-124.6 304.2 -124.6 304.2 -125 301.5 C-124.4 296.4 -121.3 294.6 -117.5 291.5 C-117.1 291.2 -117.1 291.2 -115.3 289.6 C-115 289.3 -115 289.3 -113.2 287.9 C-111.6 286.2 -111.6 286.2 -111.6 283.2 C-119.5 283.8 -126.6 285.8 -134.1 288.2 C-134.8 288.4 -135.4 288.6 -136 288.8 C-145.2 291.7 -154.3 294.9 -163.2 298.4 C-164.2 298.8 -165.2 299.2 -166.2 299.6 C-190.1 309.4 -207.4 326 -224.1 345.1 C-235.2 357.8 -235.2 357.8 -241.1 358.6 C-243.3 358.6 -245.4 358.5 -247.6 358.2 C-254.9 341.6 -251.2 323.6 -248.6 306.2 C-263.8 318.5 -265.7 339.2 -267.9 357.5 C-268.8 366 -268.8 374.5 -268.9 383 C-268.9 383.8 -268.9 384.6 -268.9 385.4 C-268.9 389.7 -268.9 393.9 -268.9 398.1 C-268.9 401.6 -268.9 405 -269 408.4 C-269.2 433.2 -267.8 456.5 -261.8 480.7 C-261 484.3 -260.4 487.6 -260.6 491.2 C-262.3 491.6 -263.9 491.9 -265.6 492.2 C-267.8 487.5 -269.4 483 -270.6 477.9 C-270.7 477.2 -270.9 476.5 -271.1 475.8 C-272.1 471.1 -272.9 466.3 -273.6 461.5 C-273.8 460.4 -273.9 459.2 -274.1 458 C-274.4 455.7 -274.7 453.4 -275 451.1 C-276.1 443 -276.1 443 -279.1 439.1 C-279.9 438.5 -280.8 437.9 -281.6 437.2 C-282.1 436.9 -282.1 436.9 -284.4 434.9 C-285.2 434.4 -285.9 433.8 -286.6 433.2 C-291.7 438.3 -291 447.4 -291 454.2 C-290.9 463.1 -288.1 471.2 -285.3 479.6 C-284.6 481.9 -283.8 484.2 -283.1 486.5 C-282.6 488 -282.1 489.5 -281.6 491 C-273.8 515 -275.3 536 -281.1 560.2 C-281.7 563.6 -281.7 566.8 -281.6 570.2 C-280.6 569.7 -279.6 569.2 -278.5 568.7 C-274.9 567.1 -272.5 567.2 -268.6 568.2 C-268.6 569.9 -268.6 571.5 -268.6 573.2 C-269.9 573.9 -269.9 573.9 -276.6 577.2 C-276.6 577.9 -276.6 578.6 -276.6 579.2 C-274.9 580.5 -274.9 580.5 -272.8 581.9 C-272 582.3 -271.3 582.8 -270.6 583.2 C-268.6 584.2 -268.6 584.2 -266.6 584.2 C-266.6 583.3 -266.5 582.4 -266.4 581.4 C-264.9 561.7 -263.1 542.3 -259.9 522.8 C-259.6 520.3 -259.6 517.8 -259.6 515.2 C-258.6 515.2 -257.6 515.2 -256.6 515.2 C-256.8 516.5 -256.9 517.8 -257 519.1 C-257.2 520.8 -257.4 522.6 -257.6 524.3 C-257.6 525.1 -257.7 526 -257.8 526.8 C-259.2 540.8 -259.8 554.6 -259.8 568.6 C-259.8 569.4 -259.8 570.2 -259.8 571.1 C-259.8 584.6 -259.2 598 -257.9 611.4 C-257.6 614.2 -257.4 616.9 -257.3 619.6 C-254.6 657.8 -239.7 689.9 -218.7 721.1 C-206.6 739.1 -197.1 757.1 -188.6 777.1 C-178.9 799.5 -167.2 815.5 -144.1 825.1 C-109.9 838.6 -66.7 842 -32.2 827.5 C-18.1 821 -6.8 810.9 4.4 800.2 C5.1 799.6 5.8 798.9 6.6 798.2 C11.2 793.7 15.2 788.9 19.2 784 C21.1 781.5 23.2 779.2 25.3 776.9 C29.8 771.9 33.8 766.6 37.8 761.3 C39.6 758.9 41.5 756.5 43.3 754.1 C55.2 738.6 55.2 738.6 59.7 732.3 C68.8 719.8 78.7 708.4 89.4 697.2 C119.8 665.3 127.1 633 130.8 589.4 C131.1 585.8 131.5 582.2 131.8 578.5 C132.9 565.7 133.7 553.1 133.4 540.2 C133 540.2 132.7 540.2 132.4 540.2 C132.3 540.5 132.3 540.5 132.2 542 C131 555.4 129.7 568.8 128.4 582.2 C126.4 582.2 124.4 582.2 122.4 582.2 C117.9 573.4 121.9 556 122.6 546.2 C122.7 545.3 122.8 544.3 122.8 543.4 C123.6 532.2 124.7 521.1 126.4 509.9 C130.4 483.6 131.6 456.6 131.8 430 C131.9 428.2 131.9 426.4 131.9 424.6 C132.2 410.7 129.9 399.8 121.9 388.1 C121.1 386.9 120.4 385.7 119.6 384.5 C118.8 383.4 118.1 382.4 117.4 381.2 C113.4 375.3 110.3 369.1 107.6 362.5 C107.3 361.8 107 361.1 106.6 360.3 C106.4 359.6 106.1 358.9 105.8 358.2 C105.5 357.6 105.3 357 105 356.3 C102.8 349.2 103.2 341.8 103.2 334.4 C103.2 333.1 103.2 331.8 103.2 330.5 C103.2 321.2 103.8 312.3 105.4 303.2 C104.7 303.2 104.1 303.2 103.4 303.2 C102.7 306.4 102.1 309.5 101.4 312.7 C101.3 313.6 101.1 314.4 100.9 315.3 C99 324.5 98.2 333.2 98.2 342.6 C98.2 343.4 98.2 344.3 98.2 345.2 C98.2 346.1 98.2 346.9 98.2 347.8 C98.2 348.6 98.2 349.3 98.2 350.1 C98.4 352.3 98.8 354.2 99.4 356.2 C95.2 355.4 92.9 354.9 90.2 351.6 C89.6 350.5 89 349.4 88.4 348.2 C87.8 347.2 87.2 346.2 86.6 345.2 C85.3 342.9 84.1 340.6 82.9 338.3 C76.6 326.1 68.1 315.8 59.4 305.2 C56 306.6 54.2 308.1 52.4 311.2 C52.3 313.7 52.3 313.7 52.6 316.2 C52.7 316.6 52.7 316.6 53 318.9 C53.3 320.5 53.6 322.2 53.9 323.9 C54.7 328 55.4 332.5 53.2 336.3 C51.4 337.2 51.4 337.2 49 337.4 C41 333.8 36.8 318.9 33.2 311 C27.5 298.7 21 287.1 11.1 277.4 C10.6 276.9 10.1 276.4 9.6 275.9 C6.1 272.3 6.1 272.3 3.2 272 C-0.4 272.3 -3.8 272.9 -7.3 273.6 Z " fill="#010101" transform="translate(324.625,24.75)"/>
<path d="M0 0 C5.9 2.1 10.6 4.6 14 10 C14.4 13.1 14.4 13.1 14.3 16.4 C14.3 17 14.3 17 14.2 19.7 C14 23 14 23 13.5 25.7 C12 35.7 13.5 45.1 15.4 54.9 C15.9 57.2 16.4 59.6 16.8 61.9 C16.9 62.4 16.9 62.4 17.4 65 C23.3 95.5 14.6 127.1 -2 153 C-7 158.6 -7 158.6 -11 159 C-13.1 156.4 -15.1 153.8 -17 151 C-19.6 150.8 -19.6 150.8 -22 151 C-23.1 154.6 -23.1 155.8 -21.6 159.3 C-21.3 159.8 -21.3 159.8 -20 162 C-26.7 161.5 -30.7 159.5 -35.2 154.6 C-36.9 152.1 -37.9 149.8 -39 147 C-41.3 144.1 -42.1 144 -46 143 C-46.3 130.5 -46.7 117.9 -47 105 C-47.7 104.7 -48.3 104.3 -49 104 C-50.1 86.6 -45.5 69.7 -41.5 52.9 C-41.2 51.7 -40.9 50.4 -40.6 49.2 C-40.4 48.1 -40.1 46.9 -39.8 45.7 C-39.5 44.7 -39.3 43.7 -39 42.7 C-37.9 39.6 -36.3 38.2 -34 36 C-33.6 34.7 -33.3 33.5 -32.9 32.2 C-28.9 19 -15.1 -2.3 0 0 Z " fill="#FDFDFD" transform="translate(509,438)"/>
<path d="M0 0 C1.3 0.2 2.6 0.3 3.9 0.5 C8.9 1.1 13.8 1.1 18.8 1 C20.7 0.9 22.6 0.9 24.5 0.9 C27.4 0.9 30.3 0.8 33.3 0.8 C45.3 0.5 56.1 1.3 67.8 4.1 C73.1 5.3 78.2 5.6 83.6 5.5 C84.6 5.5 85.6 5.5 86.6 5.5 C93.2 5.3 99.2 4.2 105.6 2.4 C121.4 -1.7 138.2 0.9 153.4 5.7 C162.8 8.4 173.5 7.6 183 6 C183.3 8 183.7 10 184 12 C150.8 40.8 112.6 59.4 68 57 C51.6 55.2 31.4 47.8 20.3 35.2 C19.2 33.8 18.1 32.4 17 31 C16.2 30.1 15.4 29.2 14.6 28.3 C8.5 21.3 2.6 13.7 -1 5 C-0.7 2.1 -0.7 2.1 0 0 Z " fill="#060606" transform="translate(136,654)"/>
<path d="M0 0 C16.9 3.6 30.8 3.3 47.7 -0.7 C65.1 -4.8 80.9 -0.6 97.8 4.5 C98.2 10.9 98.2 10.9 96.1 13.6 C95.7 13.9 95.7 13.9 93.9 15.3 C93.2 15.9 92.5 16.4 91.8 17 C87 20.5 87 20.5 83.9 20.1 C83.4 20 83.4 20 80.8 19.5 C70.4 18.9 59.2 19.5 49.1 22.2 C39.5 24.8 30.2 25 20.2 25 C17.4 25 14.6 25 11.7 25.1 C1.6 25.1 -6.9 24.4 -16.3 20.6 C-21.3 18.7 -25.2 19 -30.4 20.2 C-33.2 20.5 -33.2 20.5 -36 18.9 C-41.2 13.3 -40.5 6.8 -40.2 -0.5 C-26.1 -3.5 -14 -3.1 0 0 Z " fill="#FBFBFB" transform="translate(196.25,661.5)"/>
<path d="M0 0 C1 0 2 0 3.1 0 C12.9 0.1 20.9 0.7 29.9 4.7 C30.3 4.9 30.3 4.9 32.4 5.8 C40.8 9.5 48.9 13.7 56.9 18.2 C57.9 18.7 59 19.3 60 19.9 C62.2 21.2 64.1 22.4 65.9 24.2 C66.6 27.4 66.6 27.4 65.9 30.2 C63.9 32.2 63.9 32.2 61.1 32.6 C55.2 32.4 49.7 29.9 44.2 27.9 C30.2 23.1 15.9 18.8 0.9 18.2 C-0.1 18.1 -1.2 18.1 -2.3 18 C-16.8 17.5 -29.9 22 -40.9 31.6 C-42.5 33.2 -44.2 34.8 -45.8 36.5 C-48.1 38.2 -48.1 38.2 -50.7 38.6 C-53.1 38.2 -53.1 38.2 -55.1 36.2 C-54.7 28.7 -49.8 24.5 -45.1 19.2 C-44.2 18.2 -43.3 17.2 -42.4 16.2 C-30.2 3.2 -17.4 -0.2 0 0 Z " fill="#040404" transform="translate(118.0625,409.8125)"/>
<path d="M0 0 C1 0.7 2.1 1.5 3.1 2.2 C3.1 2.9 3.1 3.6 3.1 4.2 C-7 7.9 -15.8 9.6 -26.4 7.2 C-51.7 2 -78.4 7.8 -101.8 17.4 C-104.9 18.7 -107.5 18.6 -110.9 18.2 C-112.9 16.6 -112.9 16.6 -113.9 14.2 C-114.1 11.4 -114.1 11.4 -112.9 8.2 C-107.1 3.5 -100.3 0.3 -93.6 -2.9 C-92.6 -3.3 -91.7 -3.7 -90.8 -4.2 C-61.8 -17.6 -27.7 -16.4 0 0 Z " fill="#050505" transform="translate(366.875,414.75)"/>
<path d="M0 0 C4.2 3.8 6.7 7.6 9.2 12.6 C9.6 13.3 10 14 10.3 14.6 C18.9 31.1 14 54.4 11 72 C11.9 71.5 12.8 71 13.7 70.5 C21.1 66.4 27.4 63.2 36 65 C46.4 68.2 55.7 73.3 65 79 C65.9 79.6 66.9 80.1 67.9 80.7 C68.7 81.2 69.5 81.7 70.4 82.2 C70.7 82.5 70.7 82.5 72.5 83.6 C73 84 73.5 84.5 74 85 C74 86.3 74 87.6 74 89 C68.8 88.5 64.7 87.2 59.9 85.2 C46.2 79.5 32.2 74.4 17.6 80.2 C15.7 81.1 13.9 82 12 83 C11.6 83.2 11.6 83.2 9.7 84 C4 86.7 0.8 91.7 -1.7 97.4 C-4.9 106.6 -4.1 117.3 -4 127 C-5 127 -6 127 -7 127 C-10.5 116.6 -10.6 104.6 -5.9 94.6 C-5.6 94.1 -5.3 93.6 -5 93 C-5.7 92.3 -6.3 91.7 -7 91 C-7.1 88.8 -7.1 88.8 -6 86 C-4.9 85.1 -3.8 84.2 -2.7 83.4 C6.7 75.7 7.5 58.3 8.8 47 C10.2 32.3 8.5 19.7 1.2 6.6 C0 4 0 4 0 0 Z " fill="#0B0B0B" transform="translate(187,448)"/>
<path d="M0 0 C0.6 0.6 1.2 1.2 1.8 1.8 C1.8 2.8 1.8 3.8 1.8 4.8 C-2.4 4.2 -5.4 1.8 -8.7 -0.6 C-15.6 -5.6 -15.6 -5.6 -19.2 -7.2 C-19.2 -6.6 -19.2 -6 -19.2 -5.4 C-19.5 -1.2 -20 1.4 -22.2 5.2 C-28.7 10.8 -35.8 11.4 -44.2 11.1 C-49.8 10.5 -53.2 8.1 -57 3.9 C-60.1 -0.4 -61.2 -2.9 -61.2 -8.2 C-70.2 -5.4 -77.4 -0.4 -83.8 6.6 C-85.2 7.8 -85.2 7.8 -88.2 7.8 C-86.8 -0 -78.2 -5 -72.2 -9.3 C-46.9 -25.2 -21.7 -16.9 0 0 Z " fill="#090909" transform="translate(360.19921875,464.203125)"/>
<path d="M0 0 C6.8 5.1 11.2 11.4 15 19 C15.8 25.4 14.4 29.2 10.9 34.7 C7.4 38.9 2.9 41.5 -2 44 C-3.5 43.9 -4.9 43.8 -6.4 43.6 C-7.3 43.5 -8.2 43.4 -9.1 43.3 C-11 43.1 -12.9 42.9 -14.8 42.6 C-24.5 41.7 -30.6 46.5 -38.2 51.8 C-40.5 53.3 -42.8 54.7 -45.2 56.1 C-45.6 56.2 -45.6 56.2 -47.2 57.2 C-53.1 59.9 -60.3 60.2 -66.4 58.2 C-70.4 56.4 -73.8 54.2 -77.2 51.4 C-84.7 45.5 -88.9 43.2 -98.7 44 C-105.2 44 -109.9 40.8 -114.7 36.8 C-116.7 32.5 -116.4 29.3 -115 25 C-113.8 22.3 -112.6 19.6 -111.2 17 C-110.8 16.3 -110.5 15.7 -110.1 15 C-107.6 10.2 -107.6 10.2 -104.7 9.1 C-104.2 9 -103.6 9 -103 9 C-102 12 -102 12 -103.7 15.6 C-104.8 17.8 -105.9 19.9 -107.1 22 C-110.9 29.1 -110.9 29.1 -110 33 C-106.9 36.2 -103.1 37.9 -98.8 38.4 C-96 38 -96 38 -94.1 37 C-90.8 35.4 -88.6 35.5 -85 36 C-82 37.6 -79.6 39.8 -77 42 C-75.1 43.6 -73.2 45.2 -71.2 46.8 C-70.3 47.5 -69.4 48.3 -68.5 49 C-64.2 52.4 -61 53.6 -55.5 53.4 C-47.2 52 -40.2 44.9 -33.8 39.8 C-28.4 35.4 -25.2 33.6 -18.4 33.7 C-16 34 -14.2 34.6 -11.9 35.5 C-7.6 37.3 -4.7 37.6 0 37 C4.6 34.1 7.2 31.1 9 26 C10.3 18.8 7.3 14.3 3.7 8.1 C2.2 5.4 1 2.8 0 0 Z " fill="#0E0E0E" transform="translate(273,551)"/>
<path d="M0 0 C0.5 -0 0.5 -0 2.9 -0 C16.8 0 27.3 4.9 37.1 14.5 C37.6 15 38.1 15.6 38.7 16.1 C42.5 20 42.5 20 42.5 23.4 C38.5 22.8 36.5 20.8 33.6 18 C30.4 15 27.4 12.5 23.5 10.4 C23.4 10.8 23.4 10.8 22.9 12.9 C20.7 18.3 17.1 22.7 12.2 25.9 C4.3 27.3 -2.6 26.8 -9.5 22.4 C-14 18.4 -16.5 14 -18.5 8.4 C-26.7 11.6 -34.3 16 -41.2 21.6 C-43.5 23.4 -43.5 23.4 -45.5 23.4 C-45.1 19 -42.4 17.2 -39.1 14.5 C-27.2 4.8 -15.4 -0.2 0 0 Z " fill="#0B0B0B" transform="translate(135.5,453.625)"/>
<path d="M0 0 C6 0.8 11.4 2.8 17.1 4.7 C36.6 11.2 55.4 7.3 75 3 C75.9 2.8 76.8 2.6 77.8 2.4 C79.8 1.9 81.9 1.5 84 1 C83.7 2 83.3 3 83 4 C80.3 5.1 80.3 5.1 76.8 6.2 C76.1 6.4 75.5 6.6 74.8 6.8 C73.5 7.2 72.1 7.6 70.8 8 C68.7 8.6 66.7 9.2 64.7 9.8 C40 17.1 22.8 13.9 0 3 C0 2 0 1 0 0 Z " fill="#111111" transform="translate(177,732)"/>
<path d="M0 0 C0.9 0.7 1.7 1.4 2.6 2.1 C3 2.5 3 2.5 5.2 4.2 C7.2 6.4 7.2 6.4 7.6 9.1 C7.2 11.4 7.2 11.4 5.2 13.4 C-0.2 13.2 -4.6 10.8 -9.3 8.5 C-10.8 7.8 -12.3 7.1 -13.8 6.3 C-14.1 6.2 -14.1 6.2 -15.9 5.3 C-18.1 4.3 -20.4 3.3 -22.8 2.4 C-19.7 0.4 -18 -0.1 -14.5 -0.7 C-13.5 -0.9 -12.6 -1 -11.7 -1.2 C-3.9 -2.2 -3.9 -2.2 0 0 Z " fill="#0B0B0B" transform="translate(381.7734375,424.57421875)"/>
<path d="M0 0 C1 0 2 0 3 0 C3.4 1.3 3.7 2.5 4.1 3.8 C5.3 6.8 5.9 7.9 8.4 10 C15.1 11.9 21.8 12.2 28 9 C29.3 9 30.6 9 32 9 C32 10 32 11 32 12 C25.9 16.5 20.5 17.1 13 16 C8.6 14.7 4.5 13.1 1.7 9.2 C0.2 6 0 3.5 0 0 Z " fill="#E2E2E2" transform="translate(304,455)"/>
<path d="M0 0 C1 0 2 0 3 0 C3.4 1.1 3.8 2.1 4.2 3.2 C6.3 8.2 10.1 11 15 13 C17.1 13 17.1 13 19.4 12.7 C20.2 12.6 20.9 12.5 21.7 12.4 C22.5 12.2 23.2 12.1 24 12 C24.6 11.9 24.6 11.9 27.6 11.4 C28 11.4 28 11.4 30 11 C29.9 12.9 29.9 12.9 29 15 C24.1 17.5 18.4 17.8 13 17 C8 14.9 3.8 11.7 1 7 C0.2 3.2 0.2 3.2 0 0 Z " fill="#ECECEC" transform="translate(122,458)"/>
<path d="M0 0 C5.6 0.7 11.2 1.3 17 2 C16 6 16 6 14.4 7.3 C10.1 9.3 6.8 10.7 2 10 C1.3 9.3 0.7 8.7 0 8 C0 5.4 0 2.7 0 0 Z " fill="#F3F3F3" transform="translate(477,607)"/>
<path d="M0 0 C0.7 0 1.3 0 2 0 C1.9 0.9 1.7 1.7 1.6 2.6 C-0.2 15.4 -0.6 28.1 -1 41 C-1.3 41 -1.7 41 -2 41 C-2.3 36.7 -2.7 32.4 -3 28 C-3.3 28 -3.7 28 -4 28 C-4.2 21.6 -3.4 15.8 -2 9.5 C-1.8 8.6 -1.6 7.7 -1.4 6.7 C-1 4.5 -0.5 2.2 0 0 Z " fill="#D7D7D7" transform="translate(428,328)"/>
<path d="M0 0 C0.3 0 0.7 0 1 0 C1 5 1 9.9 1 15 C-5.8 12.8 -5.8 12.8 -9 10 C-8.7 9 -8.3 8 -8 7 C-6.8 6.5 -5.7 6.1 -4.5 5.6 C-1 4 -1 4 -0.1 1.8 C-0 1.2 -0 0.6 0 0 Z " fill="#E7E7E7" transform="translate(57,594)"/>
<path d="M0 0 C2.3 0.7 4.6 1.3 7 2 C4.2 4.8 1.1 5.1 -2.6 6 C-3 6.1 -3 6.1 -4.7 6.5 C-6.1 6.8 -7.5 7.2 -8.9 7.5 C-12.3 8.3 -15.6 9.2 -19 10 C-19 9 -19 8 -19 7 C-16.2 6.2 -13.4 5.3 -10.6 4.5 C-9.8 4.3 -9 4 -8.2 3.8 C-7.5 3.6 -6.7 3.3 -5.9 3.1 C-5.2 2.9 -4.5 2.7 -3.8 2.5 C-2 2 -2 2 0 2 C0 1.3 0 0.7 0 0 Z " fill="#A7A7A7" transform="translate(128,477)"/>
<path d="M0 0 C1.6 0.7 3.3 1.3 5 2 C1.6 4.3 -1.9 5.4 -5.8 6.6 C-6.5 6.9 -7.2 7.1 -7.9 7.3 C-12.1 8.6 -15.6 9.3 -20 9 C-20 8.3 -20 7.7 -20 7 C-17.6 6.2 -15.2 5.3 -12.8 4.5 C-12.1 4.3 -11.5 4 -10.8 3.8 C-7.1 2.5 -3.9 1.7 0 2 C0 1.3 0 0.7 0 0 Z " fill="#A1A1A1" transform="translate(308,472)"/>
<path d="M0 0 C0.7 0.3 1.3 0.7 2 1 C-6.6 9.6 -15.2 18.2 -24 27 C-24.7 26.7 -25.3 26.3 -26 26 C-25.6 25.6 -25.2 25.2 -24.7 24.8 C-21.6 21.7 -18.6 18.6 -15.8 15.2 C-11 9.7 -5.5 4.9 0 0 Z " fill="#E2E2E2" transform="translate(130,340)"/>
<path d="M0 0 C4.4 1.2 8.7 2.5 13 4 C13 4.7 13 5.3 13 6 C7.7 5.3 2.4 4.4 -2.9 3.4 C-3.7 3.3 -4.5 3.2 -5.3 3 C-7.2 2.7 -9.1 2.3 -11 2 C-7.2 -0.5 -4.4 -0.6 0 0 Z " fill="#A3A3A3" transform="translate(156,478)"/>
<path d="M0 0 C0.8 0.3 1.5 0.5 2.3 0.8 C3.1 1.1 3.9 1.4 4.7 1.7 C5.5 2 6.3 2.3 7.1 2.6 C9.1 3.3 11 4.1 13 4.8 C13 5.4 13 6.1 13 6.8 C7.9 6.2 3.3 5 -1.6 3.5 C-4.7 2.6 -7.8 2.1 -11 1.8 C-4.4 -1.6 -4.4 -1.6 0 0 Z " fill="#A4A4A4" transform="translate(337.01171875,473.21484375)"/>
<path d="M0 0 C0.7 0.3 1.3 0.7 2 1 C0.4 2.6 -1.3 4.3 -3 6 C-2.7 6.7 -2.3 7.3 -2 8 C-3.3 9.2 -4.5 10.3 -5.8 11.5 C-6.5 12.1 -7.2 12.8 -8 13.5 C-10 15 -10 15 -13 15 C-12.4 11.5 -11.3 9.9 -8.8 7.5 C-8.1 6.9 -7.5 6.3 -6.9 5.7 C-4.6 3.7 -2.4 1.8 0 0 Z " fill="#202020" transform="translate(285,457)"/>
<path d="M0 0 C0.7 0.3 1.3 0.7 2 1 C1.8 1.2 1.8 1.2 0.7 2.2 C-1 4 -1 4 -2.2 6.4 C-4.5 9.8 -7.4 12 -11 14 C-11.7 14 -12.3 14 -13 14 C-12.8 10.6 -11.8 9.8 -9.3 7.4 C-8.2 6.5 -7.1 5.6 -5.9 4.8 C-5.4 4.3 -4.8 3.8 -4.2 3.4 C-2.8 2.2 -1.4 1.1 0 0 Z " fill="#161616" transform="translate(103,463)"/>
<path d="M0 0 C-0.3 1 -0.7 2 -1 3 C-3.7 4.2 -3.7 4.2 -7.2 5.2 C-7.8 5.4 -7.8 5.4 -10.6 6.2 C-13.9 7 -16.7 7.1 -20 7 C-17.3 3 -14.4 2.8 -10 1.8 C-9.6 1.7 -9.6 1.7 -7.8 1.3 C-2.4 0 -2.4 0 0 0 Z " fill="#1C1C1C" transform="translate(261,733)"/>
<path d="M0 0 C3.8 0.7 7.2 1.7 10.8 3.1 C11.8 3.4 12.8 3.8 13.8 4.2 C14.5 4.4 15.2 4.7 16 5 C15 6 14 7 13 8 C8.7 6 4.4 4 0 2 C0 1.3 0 0.7 0 0 Z " fill="#E0E0E0" transform="translate(440,187)"/>
<path d="M0 0 C-0.3 1.3 -0.7 2.6 -1 4 C-3.6 4.7 -6.3 5.3 -9 6 C-9 4.7 -9 3.4 -9 2 C-3.4 0 -3.4 0 0 0 Z " fill="#E1E1E1" transform="translate(152,469)"/>
<path d="M0 0 C2.3 0.7 4.6 1.3 7 2 C4.4 4.6 3 4.4 -0.6 4.6 C-1.6 4.7 -2.6 4.8 -3.7 4.9 C-4 4.9 -4 4.9 -6 5 C-2.2 2 -2.2 2 0 2 C0 1.3 0 0.7 0 0 Z " fill="#A1A1A1" transform="translate(128,477)"/>
<path d="M0 0 C1 0.2 1 0.2 6 1 C5.7 2.3 5.3 3.6 5 5 C3.4 4.7 1.7 4.3 0 4 C0 2.7 0 1.4 0 0 Z " fill="#E6E6E6" transform="translate(333,454)"/>
<path d="M0 0 C1.3 0.7 2.6 1.3 4 2 C2 3 0.1 4 -1.9 5.1 C-3 5.6 -4.1 6.2 -5.2 6.8 C-6.1 7.2 -7 7.6 -8 8 C-8.7 7.7 -9.3 7.3 -10 7 C-6.7 4.7 -3.4 2.4 0 0 Z " fill="#C7C7C7" transform="translate(302,51)"/>
<path d="M0 0 C2 0 4 0 6 0 C5.7 1.3 5.3 2.6 5 4 C3.3 4 1.7 4 0 4 C0 2.7 0 1.4 0 0 Z " fill="#E9E9E9" transform="translate(151,461)"/>
<path d="M0 0 C1 0 2 0 3 0 C3 2.3 3 4.6 3 7 C2.3 6.7 1.7 6.3 1 6 C0.3 7 -0.3 8 -1 9 C-0.7 6 -0.3 3.1 0 0 Z " fill="#2E2E2E" transform="translate(65,540)"/>
<path d="M0 0 C0 3 0 3 -1 6 C-2.6 6.3 -4.3 6.7 -6 7 C-4.5 2.3 -4.5 2.3 -1.9 0.7 C-1.3 0.5 -0.6 0.2 0 0 Z " fill="#1D1D1D" transform="translate(334,467)"/>
<path d="M0 0 C0.6 0.4 1.1 0.7 1.7 1.1 C-1.7 3.4 -3.3 3.3 -7.3 3.1 C-7.3 2.5 -7.3 1.8 -7.3 1.1 C-2.9 -1.1 -2.9 -1.1 0 0 Z " fill="#AEAEAE" transform="translate(295.3125,477.875)"/>
<path d="M0 0 C4.9 4.8 4.9 4.8 6 7 C4.7 7 3.4 7 2 7 C0 4 0 4 0 0 Z " fill="#1B1B1B" transform="translate(187,448)"/>
<path d="M0 0 C0.3 0.2 0.3 0.2 1.8 1.1 C1.8 1.4 1.8 1.7 1.8 2.1 C-1.8 2.1 -5.4 2.1 -9.2 2.1 C-2.7 -1.2 -2.7 -1.2 0 0 Z " fill="#A0A0A0" transform="translate(335.1875,472.9375)"/>
<path d="M0 0 C1 0 2 0 3 0 C3.1 2.9 3.1 2.9 3 6 C2.3 6.7 1.7 7.3 1 8 C0.7 5.4 0.3 2.7 0 0 Z " fill="#E7E7E7" transform="translate(304,455)"/>
<path d="M0 0 C2.6 0.3 5.3 0.7 8 1 C7.5 1.5 7.5 1.5 5 4 C3.3 3 1.6 2 0 1 C0 0.7 0 0.3 0 0 Z " fill="#EDEDED" transform="translate(448,191)"/>
</svg>
